<svg version="1.1" id="Layer_1" xmlns="http://www.w3.org/2000/svg" xmlns:xlink="http://www.w3.org/1999/xlink" x="0px" y="0px"
	 width="100%" viewBox="0 0 500 500" enable-background="new 0 0 500 500" xml:space="preserve">
<path fill="#014AAD" opacity="1.000000" stroke="none" 
	d="
M501.000000,185.000000 
	C501.000000,290.666656 501.000000,395.833282 501.000000,500.999939 
	C334.333405,500.999969 167.666794,500.999969 1.000146,501.000000 
	C1.000097,334.333435 1.000097,167.666870 1.000049,1.000235 
	C167.666519,1.000157 334.333038,1.000157 500.999786,1.000078 
	C501.000000,62.166668 501.000000,123.333336 501.000000,185.000000 
M436.170410,404.687286 
	C464.404205,370.753723 482.228424,331.929840 488.787811,288.373901 
	C495.408051,244.413727 491.311676,201.313248 474.010284,160.004944 
	C446.332092,93.921387 398.538696,48.430157 331.516479,23.677496 
	C290.484680,8.523630 248.065292,6.075728 205.071091,14.118794 
	C160.377167,22.479832 120.982803,42.133568 88.077538,73.114166 
	C28.102142,129.581543 2.425031,199.449448 11.968874,281.445618 
	C18.376606,336.497833 41.854427,384.019257 81.730339,422.247772 
	C146.469650,484.312469 223.671249,504.486084 310.699921,484.006958 
	C360.980927,472.175079 402.358429,444.688660 436.170410,404.687286 
z"/>
<path fill="#F0F5FA" opacity="1.000000" stroke="none" 
	d="
M435.945129,404.961151 
	C402.358429,444.688660 360.980927,472.175079 310.699921,484.006958 
	C223.671249,504.486084 146.469650,484.312469 81.730339,422.247772 
	C41.854427,384.019257 18.376606,336.497833 11.968874,281.445618 
	C2.425031,199.449448 28.102142,129.581543 88.077538,73.114166 
	C120.982803,42.133568 160.377167,22.479832 205.071091,14.118794 
	C248.065292,6.075728 290.484680,8.523630 331.516479,23.677496 
	C398.538696,48.430157 446.332092,93.921387 474.010284,160.004944 
	C491.311676,201.313248 495.408051,244.413727 488.787811,288.373901 
	C482.228424,331.929840 464.404205,370.753723 435.945129,404.961151 
M204.931137,18.153326 
	C190.472626,22.527897 175.575012,25.815378 161.625534,31.450130 
	C56.149029,74.056328 -3.995305,185.989670 18.303053,297.282043 
	C42.519711,418.148712 156.545883,500.903168 278.672791,486.078156 
	C339.507843,478.693359 390.572632,451.848297 429.993713,405.228394 
	C485.906097,339.105713 501.897095,263.072845 476.752136,180.413666 
	C441.492584,64.504715 324.811066,-4.417493 204.931137,18.153326 
z"/>
<path fill="#014BAD" opacity="1.000000" stroke="none" 
	d="
M205.352585,18.092232 
	C324.811066,-4.417493 441.492584,64.504715 476.752136,180.413666 
	C501.897095,263.072845 485.906097,339.105713 429.993713,405.228394 
	C390.572632,451.848297 339.507843,478.693359 278.672791,486.078156 
	C156.545883,500.903168 42.519711,418.148712 18.303053,297.282043 
	C-3.995305,185.989670 56.149029,74.056328 161.625534,31.450130 
	C175.575012,25.815378 190.472626,22.527897 205.352585,18.092232 
M394.021393,325.100800 
	C399.751678,328.330841 405.481964,331.560883 411.723877,335.079346 
	C410.756042,324.192657 410.167999,312.819031 408.560791,301.591278 
	C407.804626,296.308960 404.487396,291.674377 399.144592,289.449951 
	C391.152161,286.122314 382.944794,284.538269 373.921570,287.155029 
	C367.568237,281.337646 361.214935,275.520294 355.393494,269.069214 
	C370.309143,253.154922 385.259583,237.273071 400.129944,221.316589 
	C413.259857,207.227707 425.038513,192.296356 430.971405,173.494995 
	C437.578094,152.558380 434.229309,131.603073 431.424011,110.673225 
	C430.638916,104.815918 426.683960,104.081314 422.252106,108.206230 
	C415.635925,114.364197 414.691650,122.756821 413.060852,130.886108 
	C412.006042,136.144119 411.085205,141.429001 410.104370,146.701843 
	C409.407471,146.649246 408.710571,146.596664 408.013672,146.544083 
	C407.864075,132.452454 407.835876,118.357452 407.445862,104.272491 
	C407.380585,101.914742 406.280945,98.214348 404.705597,97.606705 
	C402.598633,96.793983 399.023956,97.678726 397.064575,99.148064 
	C394.839172,100.816879 393.342194,103.776703 392.157318,106.453590 
	C388.596222,114.499031 387.528625,123.029434 387.640869,131.800461 
	C387.701538,136.542191 387.129181,141.292023 386.842438,146.038208 
	C386.404114,146.011703 385.965820,145.985214 385.527496,145.958710 
	C385.325623,144.683517 385.125458,143.408051 384.921539,142.133179 
	C383.793121,135.078384 383.001587,127.942978 381.345184,121.014343 
	C380.791443,118.698143 378.129730,115.391006 376.247925,115.264259 
	C373.876892,115.104553 370.746246,117.254532 369.002411,119.307571 
	C367.304962,121.306030 366.238953,124.412941 366.136902,127.080635 
	C365.890656,133.517960 366.341064,139.984024 366.572479,146.436295 
	C366.644501,148.444443 366.915192,150.445480 367.094940,152.449768 
	C364.221771,148.466415 362.815308,144.077805 360.680786,140.077698 
	C359.571472,137.998718 356.619415,134.876205 355.471741,135.245544 
	C352.653290,136.152512 349.301361,138.335632 348.197449,140.885696 
	C346.852051,143.993515 347.089661,148.064713 347.534576,151.607193 
	C348.287384,157.600769 349.740265,163.506393 351.091797,170.438812 
	C349.573608,168.091278 348.909302,166.173187 347.562927,165.175446 
	C345.077301,163.333450 341.878601,160.474258 339.560516,160.940460 
	C337.226044,161.409958 334.504425,165.172012 333.914978,167.913376 
	C332.961914,172.345932 333.426941,177.132950 333.650238,181.753021 
	C333.824463,185.357986 334.541107,188.936752 335.016693,192.527145 
	C332.641022,190.951981 331.251221,189.098541 329.642883,187.459579 
	C324.386200,182.102768 320.187622,182.380127 317.699615,189.479019 
	C315.746552,195.051453 315.777985,201.434875 315.612335,207.476791 
	C315.506042,211.354004 316.642029,215.265289 317.221161,219.161316 
	C314.508057,215.140411 311.720612,213.067490 307.408875,215.890549 
	C305.647827,217.043579 303.895599,218.627045 302.882111,220.431778 
	C298.743683,227.801010 294.892334,235.331436 290.140503,242.843719 
	C274.805695,241.537491 259.470917,240.231262 243.835464,238.323135 
	C240.201202,234.908401 236.819489,231.166367 232.889999,228.134232 
	C213.404648,213.098663 193.992828,197.952682 174.140701,183.411316 
	C149.175552,165.124725 134.649155,140.856186 130.027542,110.392693 
	C129.582825,107.461319 130.346771,102.295723 125.763123,102.894836 
	C121.087494,103.505974 121.871719,108.618813 122.398148,112.032318 
	C123.408501,118.583611 125.108559,125.028526 126.121590,131.886551 
	C125.991570,132.013367 125.861549,132.140167 125.206093,131.825302 
	C118.709938,120.683685 112.269440,109.508690 105.635124,98.449951 
	C104.939796,97.290916 103.099930,96.818504 101.791084,96.027527 
	C101.326111,97.520821 100.321602,99.085846 100.508614,100.492462 
	C100.896652,103.411125 101.685921,106.333237 102.731033,109.094673 
	C104.364754,113.411316 106.347694,117.595802 107.769249,122.189880 
	C107.632393,122.308868 107.495537,122.427856 106.920288,122.052780 
	C106.162369,120.962479 105.408699,119.869202 104.645851,118.782356 
	C100.262184,112.536789 95.946030,106.241402 91.420410,100.100403 
	C90.694046,99.114769 89.028587,98.821205 87.797256,98.207710 
	C87.366829,99.694809 86.614815,101.178375 86.598427,102.670021 
	C86.582726,104.098015 87.138115,105.627785 87.777534,106.950920 
	C90.512421,112.610161 93.371162,118.209549 95.772041,124.207451 
	C95.636238,124.334923 95.500435,124.462395 94.832703,124.200279 
	C92.750298,122.327499 90.782921,120.300018 88.545082,118.636307 
	C87.051407,117.525833 85.172676,116.933311 83.466270,116.108986 
	C82.786575,118.383659 81.603012,120.651405 81.571609,122.934982 
	C81.541359,125.134354 82.370186,127.522713 83.410484,129.521545 
	C85.380829,133.307419 87.772682,136.873901 89.339188,140.894791 
	C89.129120,141.027084 88.919044,141.159378 88.044601,141.068024 
	C87.343452,140.644150 86.691147,140.054214 85.931076,139.830688 
	C84.308434,139.353455 82.040077,138.253799 81.129700,138.914886 
	C80.086998,139.672058 79.921028,142.066376 79.946884,143.740570 
	C79.971214,145.316025 80.332428,147.200699 81.262901,148.386185 
	C83.639099,151.413651 86.415298,154.127151 88.972214,157.033737 
	C88.972214,157.033737 88.913376,157.101593 88.049347,157.317825 
	C87.056915,157.210907 86.066811,157.068695 85.071663,157.002899 
	C79.334396,156.623566 77.555817,158.755661 80.098152,164.049011 
	C81.768723,167.527283 84.417068,170.719376 87.223824,173.419891 
	C90.391998,176.468140 94.228539,178.821747 97.774414,181.477448 
	C94.369431,181.229660 91.280930,180.048492 88.085213,179.536285 
	C86.532066,179.287354 84.115356,179.789749 83.303032,180.867035 
	C82.500130,181.931824 82.572067,184.630325 83.408348,185.768814 
	C85.640038,188.807022 88.211983,191.743362 91.162979,194.067078 
	C94.737160,196.881485 98.839119,199.025650 103.469749,201.935593 
	C99.051682,201.579849 95.561546,200.972229 92.109573,201.141785 
	C89.994232,201.245697 86.824921,202.005371 86.135422,203.436951 
	C85.270187,205.233398 85.699226,208.582123 86.934586,210.249878 
	C88.930573,212.944443 91.984978,214.885223 94.705750,216.998383 
	C95.856163,217.891861 97.294266,218.414932 99.534523,219.599792 
	C96.930138,219.879883 95.600433,219.969589 94.289604,220.178024 
	C92.812302,220.412933 91.330872,220.676193 89.888100,221.064178 
	C84.692902,222.461227 83.618866,225.557098 87.681458,229.112915 
	C90.854134,231.889862 94.717979,234.213028 98.667229,235.683777 
	C103.880424,237.625214 109.477318,238.536362 115.267647,239.979721 
	C111.587662,257.835907 115.944183,274.099091 125.862801,289.684967 
	C124.761391,291.140686 123.639404,292.581390 122.561737,294.054474 
	C111.616356,309.015717 105.098038,325.616028 107.321404,344.260559 
	C108.517960,354.294678 112.322411,364.017822 114.112015,373.982483 
	C104.129837,375.677307 94.106712,377.167816 84.183472,379.156677 
	C79.509682,380.093414 74.963860,381.817505 70.479958,383.503662 
	C67.138283,384.760254 66.046425,387.595367 67.393150,390.824188 
	C70.771843,398.924805 76.029991,404.667084 85.412117,406.089722 
	C102.908524,408.742737 119.803650,405.327759 137.371063,402.172852 
	C147.729996,409.070587 157.475876,417.224365 168.560791,422.634674 
	C204.322571,440.089172 242.265228,444.339355 281.470795,438.533905 
	C310.842560,434.184662 337.935272,424.069122 360.890442,404.955994 
	C385.726166,384.277039 399.535919,358.614136 394.021393,325.100800 
z"/>
<path fill="#D8D8D9" opacity="1.000000" stroke="none" 
	d="
M89.031479,156.966248 
	C86.415298,154.127151 83.639099,151.413651 81.262901,148.386185 
	C80.332428,147.200699 79.971214,145.316025 79.946884,143.740570 
	C79.921028,142.066376 80.086998,139.672058 81.129700,138.914886 
	C82.040077,138.253799 84.308434,139.353455 85.931076,139.830688 
	C86.691147,140.054214 87.343452,140.644150 88.614578,141.466614 
	C89.591949,141.885468 89.999344,141.905716 90.406746,141.925964 
	C90.267632,141.461151 90.128517,140.996353 89.989410,140.531540 
	C87.772682,136.873901 85.380829,133.307419 83.410484,129.521545 
	C82.370186,127.522713 81.541359,125.134354 81.571609,122.934982 
	C81.603012,120.651405 82.786575,118.383659 83.466263,116.108986 
	C85.172676,116.933311 87.051407,117.525833 88.545082,118.636307 
	C90.782921,120.300018 92.750298,122.327499 95.267441,124.609047 
	C96.055489,125.124794 96.408813,125.231781 96.762131,125.338760 
	C96.569672,124.836098 96.377213,124.333427 96.184753,123.830765 
	C93.371162,118.209549 90.512421,112.610161 87.777534,106.950920 
	C87.138115,105.627785 86.582726,104.098015 86.598427,102.670021 
	C86.614815,101.178375 87.366829,99.694809 87.797256,98.207710 
	C89.028587,98.821205 90.694046,99.114769 91.420410,100.100403 
	C95.946030,106.241402 100.262184,112.536789 104.645851,118.782356 
	C105.408699,119.869202 106.162369,120.962479 107.282623,122.581757 
	C107.898018,123.646545 108.151070,124.182365 108.404121,124.718193 
	C108.615517,124.644371 108.826912,124.570549 109.038307,124.496727 
	C108.753105,123.609909 108.467896,122.723091 108.182686,121.836273 
	C106.347694,117.595802 104.364754,113.411316 102.731033,109.094673 
	C101.685921,106.333237 100.896652,103.411125 100.508614,100.492462 
	C100.321602,99.085846 101.326111,97.520821 101.791084,96.027527 
	C103.099930,96.818504 104.939796,97.290916 105.635124,98.449951 
	C112.269440,109.508690 118.709938,120.683685 125.607971,132.273743 
	C126.180740,132.320648 126.351616,131.919113 126.522491,131.517578 
	C125.108559,125.028526 123.408501,118.583611 122.398148,112.032318 
	C121.871719,108.618813 121.087494,103.505974 125.763123,102.894836 
	C130.346771,102.295723 129.582825,107.461319 130.027542,110.392693 
	C134.649155,140.856186 149.175552,165.124725 174.140701,183.411316 
	C193.992828,197.952682 213.404648,213.098663 232.889999,228.134232 
	C236.819489,231.166367 240.201202,234.908401 243.533844,238.688751 
	C198.198578,241.690277 157.559326,254.622559 126.093193,289.048126 
	C115.944183,274.099091 111.587662,257.835907 115.267647,239.979721 
	C109.477318,238.536362 103.880424,237.625214 98.667229,235.683777 
	C94.717979,234.213028 90.854134,231.889862 87.681458,229.112915 
	C83.618866,225.557098 84.692902,222.461227 89.888100,221.064178 
	C91.330872,220.676193 92.812302,220.412933 94.289604,220.178024 
	C95.600433,219.969589 96.930138,219.879883 99.534523,219.599792 
	C97.294266,218.414932 95.856163,217.891861 94.705750,216.998383 
	C91.984978,214.885223 88.930573,212.944443 86.934586,210.249878 
	C85.699226,208.582123 85.270187,205.233398 86.135422,203.436951 
	C86.824921,202.005371 89.994232,201.245697 92.109573,201.141785 
	C95.561546,200.972229 99.051682,201.579849 103.469749,201.935593 
	C98.839119,199.025650 94.737160,196.881485 91.162979,194.067078 
	C88.211983,191.743362 85.640038,188.807022 83.408348,185.768814 
	C82.572067,184.630325 82.500130,181.931824 83.303032,180.867035 
	C84.115356,179.789749 86.532066,179.287354 88.085213,179.536285 
	C91.280930,180.048492 94.369431,181.229660 97.774414,181.477448 
	C94.228539,178.821747 90.391998,176.468140 87.223824,173.419891 
	C84.417068,170.719376 81.768723,167.527283 80.098152,164.049011 
	C77.555817,158.755661 79.334396,156.623566 85.071663,157.002899 
	C86.066811,157.068695 87.056915,157.210907 88.565483,157.455017 
	C89.483490,157.576324 89.885361,157.560440 90.287231,157.544556 
	C89.868645,157.351791 89.450058,157.159027 89.031479,156.966248 
M91.716599,142.330032 
	C91.384659,142.456253 91.052719,142.582474 90.720779,142.708710 
	C91.094864,142.886642 91.468948,143.064575 91.732155,143.805893 
	C92.047508,144.008224 92.362862,144.210571 92.678223,144.412903 
	C92.452415,143.941635 92.226608,143.470352 91.716599,142.330032 
z"/>
<path fill="#D8D8D9" opacity="1.000000" stroke="none" 
	d="
M290.935242,242.802505 
	C294.892334,235.331436 298.743683,227.801010 302.882111,220.431778 
	C303.895599,218.627045 305.647827,217.043579 307.408875,215.890549 
	C311.720612,213.067490 314.508057,215.140411 317.221161,219.161316 
	C316.642029,215.265289 315.506042,211.354004 315.612335,207.476791 
	C315.777985,201.434875 315.746552,195.051453 317.699615,189.479019 
	C320.187622,182.380127 324.386200,182.102768 329.642883,187.459579 
	C331.251221,189.098541 332.641022,190.951981 335.016693,192.527145 
	C334.541107,188.936752 333.824463,185.357986 333.650238,181.753021 
	C333.426941,177.132950 332.961914,172.345932 333.914978,167.913376 
	C334.504425,165.172012 337.226044,161.409958 339.560516,160.940460 
	C341.878601,160.474258 345.077301,163.333450 347.562927,165.175446 
	C348.909302,166.173187 349.573608,168.091278 351.091797,170.438812 
	C349.740265,163.506393 348.287384,157.600769 347.534576,151.607193 
	C347.089661,148.064713 346.852051,143.993515 348.197449,140.885696 
	C349.301361,138.335632 352.653290,136.152512 355.471741,135.245544 
	C356.619415,134.876205 359.571472,137.998718 360.680786,140.077698 
	C362.815308,144.077805 364.221771,148.466415 367.094940,152.449768 
	C366.915192,150.445480 366.644501,148.444443 366.572479,146.436295 
	C366.341064,139.984024 365.890656,133.517960 366.136902,127.080635 
	C366.238953,124.412941 367.304962,121.306030 369.002411,119.307571 
	C370.746246,117.254532 373.876892,115.104553 376.247925,115.264259 
	C378.129730,115.391006 380.791443,118.698143 381.345184,121.014343 
	C383.001587,127.942978 383.793121,135.078384 384.921539,142.133179 
	C385.125458,143.408051 385.325623,144.683517 385.527496,145.958710 
	C385.965820,145.985214 386.404114,146.011703 386.842438,146.038208 
	C387.129181,141.292023 387.701538,136.542191 387.640869,131.800461 
	C387.528625,123.029434 388.596222,114.499031 392.157318,106.453590 
	C393.342194,103.776703 394.839172,100.816879 397.064575,99.148064 
	C399.023956,97.678726 402.598633,96.793983 404.705597,97.606705 
	C406.280945,98.214348 407.380585,101.914742 407.445862,104.272491 
	C407.835876,118.357452 407.864075,132.452454 408.013672,146.544083 
	C408.710571,146.596664 409.407471,146.649246 410.104370,146.701843 
	C411.085205,141.429001 412.006042,136.144119 413.060852,130.886108 
	C414.691650,122.756821 415.635925,114.364197 422.252106,108.206230 
	C426.683960,104.081314 430.638916,104.815918 431.424011,110.673225 
	C434.229309,131.603073 437.578094,152.558380 430.971405,173.494995 
	C425.038513,192.296356 413.259857,207.227707 400.129944,221.316589 
	C385.259583,237.273071 370.309143,253.154922 354.832397,269.238770 
	C335.054474,256.028168 313.671600,247.804337 290.935242,242.802505 
z"/>
<path fill="#FADB5C" opacity="1.000000" stroke="none" 
	d="
M290.537872,242.823120 
	C313.671600,247.804337 335.054474,256.028168 354.566467,269.555634 
	C361.214935,275.520294 367.568237,281.337646 374.345032,287.667114 
	C383.329376,299.279938 390.303101,311.177094 393.283081,325.078156 
	C399.535919,358.614136 385.726166,384.277039 360.890442,404.955994 
	C337.935272,424.069122 310.842560,434.184662 281.470795,438.533905 
	C242.265228,444.339355 204.322571,440.089172 168.560791,422.634674 
	C157.475876,417.224365 147.729996,409.070587 136.910217,401.743805 
	C129.282974,392.170258 122.116570,383.025757 114.950180,373.881256 
	C112.322411,364.017822 108.517960,354.294678 107.321404,344.260559 
	C105.098038,325.616028 111.616356,309.015717 122.561737,294.054474 
	C123.639404,292.581390 124.761391,291.140686 125.977997,289.366547 
	C157.559326,254.622559 198.198578,241.690277 243.684174,238.989700 
	C259.470917,240.231262 274.805695,241.537491 290.537872,242.823120 
M148.276260,399.801697 
	C157.617447,405.503326 166.476898,412.280762 176.384521,416.717468 
	C215.979721,434.448547 257.098175,436.667114 298.909241,426.140320 
	C326.788177,419.121185 351.569550,406.319977 369.967560,383.494415 
	C382.854401,367.506287 389.009064,349.347137 384.901184,327.835815 
	C382.048920,313.976837 375.640625,302.004028 365.562439,291.260986 
	C359.949677,286.469971 354.336884,281.678986 348.254883,276.327332 
	C329.829437,263.068970 309.162750,255.288376 286.148407,251.035446 
	C275.119873,250.044296 264.091339,249.053146 252.124161,247.950806 
	C221.363083,247.732864 192.077438,253.763046 165.053650,268.927856 
	C152.232239,276.122803 140.511124,284.752533 131.232132,297.222229 
	C113.263817,319.532654 110.485214,349.092804 124.400406,372.602875 
	C130.296371,383.200714 138.121704,392.096863 148.276260,399.801697 
z"/>
<path fill="#D7D8D8" opacity="1.000000" stroke="none" 
	d="
M114.531097,373.931885 
	C122.116570,383.025757 129.282974,392.170258 136.594940,401.587402 
	C119.803650,405.327759 102.908524,408.742737 85.412117,406.089722 
	C76.029991,404.667084 70.771843,398.924805 67.393150,390.824188 
	C66.046425,387.595367 67.138283,384.760254 70.479958,383.503662 
	C74.963860,381.817505 79.509682,380.093414 84.183472,379.156677 
	C94.106712,377.167816 104.129837,375.677307 114.531097,373.931885 
z"/>
<path fill="#D7D7D8" opacity="1.000000" stroke="none" 
	d="
M393.652222,325.089478 
	C390.303101,311.177094 383.329376,299.279938 374.599854,287.880188 
	C382.944794,284.538269 391.152161,286.122314 399.144592,289.449951 
	C404.487396,291.674377 407.804626,296.308960 408.560791,301.591278 
	C410.167999,312.819031 410.756042,324.192657 411.723877,335.079346 
	C405.481964,331.560883 399.751678,328.330841 393.652222,325.089478 
z"/>
<path fill="#014BAD" opacity="1.000000" stroke="none" 
	d="
M107.975967,122.013077 
	C108.467896,122.723091 108.753105,123.609909 109.038307,124.496727 
	C108.826912,124.570549 108.615517,124.644371 108.404121,124.718193 
	C108.151070,124.182365 107.898018,123.646545 107.501831,122.828781 
	C107.495537,122.427856 107.632393,122.308868 107.975967,122.013077 
z"/>
<path fill="#014BAD" opacity="1.000000" stroke="none" 
	d="
M89.001846,157.000000 
	C89.450058,157.159027 89.868645,157.351791 90.287231,157.544556 
	C89.885361,157.560440 89.483490,157.576324 88.997498,157.346909 
	C88.913376,157.101593 88.972214,157.033737 89.001846,157.000000 
z"/>
<path fill="#014BAD" opacity="1.000000" stroke="none" 
	d="
M92.000801,142.999084 
	C92.226608,143.470352 92.452415,143.941635 92.678223,144.412903 
	C92.362862,144.210571 92.047508,144.008224 91.826317,143.462875 
	C91.920479,143.119858 92.000801,142.999084 92.000801,142.999084 
z"/>
<path fill="#014BAD" opacity="1.000000" stroke="none" 
	d="
M95.978394,124.019104 
	C96.377213,124.333427 96.569672,124.836098 96.762131,125.338760 
	C96.408813,125.231781 96.055489,125.124794 95.533401,124.803833 
	C95.500435,124.462395 95.636238,124.334923 95.978394,124.019104 
z"/>
<path fill="#014BAD" opacity="1.000000" stroke="none" 
	d="
M126.322037,131.702057 
	C126.351616,131.919113 126.180740,132.320648 125.870697,132.494583 
	C125.861549,132.140167 125.991570,132.013367 126.322037,131.702057 
z"/>
<path fill="#014BAD" opacity="1.000000" stroke="none" 
	d="
M89.664299,140.713165 
	C90.128517,140.996353 90.267632,141.461151 90.406746,141.925964 
	C89.999344,141.905716 89.591949,141.885468 88.946754,141.578461 
	C88.919044,141.159378 89.129120,141.027084 89.664299,140.713165 
z"/>
<path fill="#014BAD" opacity="1.000000" stroke="none" 
	d="
M91.881752,143.181183 
	C91.468948,143.064575 91.094864,142.886642 90.720779,142.708710 
	C91.052719,142.582474 91.384659,142.456253 91.858704,142.664551 
	C92.000801,142.999084 91.920479,143.119858 91.881752,143.181183 
z"/>
<path fill="#D9D9D9" opacity="1.000000" stroke="none" 
	d="
M365.811371,291.845764 
	C375.640625,302.004028 382.048920,313.976837 384.553680,328.317261 
	C372.582794,336.478149 361.436523,344.946442 348.196472,349.910919 
	C345.759338,350.824707 343.681519,352.685822 341.420044,354.080780 
	C332.258179,359.732025 323.463593,366.138672 313.836151,370.838013 
	C299.080414,378.040710 283.861572,384.434387 267.004700,384.797485 
	C267.278809,371.499756 274.272675,363.070984 284.927612,356.979034 
	C287.925964,355.264740 290.492828,355.291687 293.810242,356.662903 
	C297.359161,358.129791 301.557098,358.934479 305.333435,358.575104 
	C307.340698,358.384064 310.337738,355.237183 310.528748,353.203033 
	C310.707550,351.299225 308.173004,348.145844 306.105286,347.280762 
	C303.591248,346.228912 300.281921,346.701569 297.376404,347.035217 
	C289.911377,347.892426 286.980927,345.932037 285.384888,338.527924 
	C284.264526,333.330780 285.657776,332.065063 290.896149,332.652863 
	C302.823425,333.991302 314.332581,333.198639 323.441833,324.002502 
	C329.672668,317.712250 327.498596,308.457672 318.915070,306.400574 
	C314.261261,305.285217 309.124512,306.201080 304.205841,306.167023 
	C302.309418,306.153900 299.897644,306.782318 298.597656,305.869476 
	C285.977753,297.007843 273.932831,301.569855 261.730194,306.826141 
	C259.215729,307.909241 256.043671,308.756073 253.485214,308.222595 
	C242.571716,305.947021 231.793793,303.030701 220.929596,300.506470 
	C210.912582,298.179047 201.077942,298.424408 191.847504,303.587708 
	C184.136093,307.901245 181.436966,315.298828 181.401901,323.379150 
	C181.369339,330.876373 184.398682,337.352600 191.885193,340.741241 
	C200.274155,344.538361 208.510849,343.222260 216.560135,339.787384 
	C217.611694,339.338654 217.966034,337.256104 218.643341,335.930328 
	C217.222748,335.523865 215.736984,334.633301 214.395432,334.813934 
	C211.779510,335.166077 209.282883,336.456818 206.668091,336.754272 
	C200.230408,337.486572 193.804657,337.477325 189.587265,331.315338 
	C185.645569,325.556091 185.925049,319.176849 189.847885,313.993622 
	C192.438843,310.570251 196.823944,307.776520 200.969788,306.401276 
	C211.410492,302.937897 221.709534,306.358795 231.876190,308.792389 
	C238.887466,310.470642 245.786407,312.618286 251.900528,314.323303 
	C246.613556,328.979980 241.569168,342.874207 236.592056,356.792542 
	C233.121124,366.498871 229.742340,376.238129 225.833862,385.935242 
	C211.308624,387.389160 197.271912,388.870483 183.183685,389.920410 
	C182.469162,380.297485 191.068726,367.838348 204.326477,366.234283 
	C205.931427,366.040100 207.310577,363.979614 208.794342,362.784119 
	C206.878540,362.030853 204.835190,360.403137 203.066910,360.661102 
	C187.284943,362.963135 177.155228,375.311310 176.649567,392.039185 
	C166.817017,394.509796 157.364456,396.884918 147.911911,399.260010 
	C138.121704,392.096863 130.296371,383.200714 124.644852,372.163818 
	C130.291458,369.646454 136.255753,368.426575 140.989182,365.327026 
	C154.584854,356.424408 167.684097,346.763519 180.962158,337.377625 
	C181.177002,337.225769 181.185730,336.782257 181.317078,336.397400 
	C162.579697,326.056183 145.446701,313.672791 131.815811,296.910370 
	C140.511124,284.752533 152.232239,276.122803 165.053650,268.927856 
	C192.077438,253.763046 221.363083,247.732864 252.725525,248.307709 
	C260.636230,257.414703 267.945587,266.164764 275.475891,275.179352 
	C279.423401,266.957428 283.194122,259.103760 286.964844,251.250076 
	C309.162750,255.288376 329.829437,263.068970 348.235931,276.900116 
	C343.340790,283.314087 338.482910,289.162537 339.984222,297.950958 
	C348.985931,296.823120 358.037689,297.166626 365.811371,291.845764 
z"/>
<path fill="#034CAD" opacity="1.000000" stroke="none" 
	d="
M267.040802,385.246246 
	C283.861572,384.434387 299.080414,378.040710 313.836151,370.838013 
	C323.463593,366.138672 332.258179,359.732025 341.420044,354.080780 
	C343.681519,352.685822 345.759338,350.824707 348.196472,349.910919 
	C361.436523,344.946442 372.582794,336.478149 384.544434,328.684326 
	C389.009064,349.347137 382.854401,367.506287 369.967560,383.494415 
	C351.569550,406.319977 326.788177,419.121185 298.909241,426.140320 
	C257.098175,436.667114 215.979721,434.448547 176.384521,416.717468 
	C166.476898,412.280762 157.617447,405.503326 148.094086,399.530853 
	C157.364456,396.884918 166.817017,394.509796 176.888123,392.328979 
	C180.123657,405.939484 188.077972,412.834167 200.862244,413.148682 
	C212.502167,413.434967 220.841644,408.135010 226.676865,398.447540 
	C229.216232,394.231781 231.470062,389.844055 234.320892,385.651855 
	C243.420410,385.983337 252.052612,386.197388 260.641083,386.824585 
	C261.845032,403.347015 271.634247,412.612091 287.813019,413.009583 
	C300.638397,413.324707 311.382080,408.605865 319.226593,398.593689 
	C323.685760,392.902374 327.014465,386.294617 330.563080,379.938141 
	C331.718994,377.867523 334.076294,374.893707 330.384155,373.251282 
	C329.553253,372.881622 326.776459,375.664368 325.627380,377.463440 
	C322.330719,382.624817 319.868744,388.365143 316.249847,393.265869 
	C307.263306,405.435577 292.513702,410.317413 279.656677,405.972748 
	C270.384491,402.839478 264.608154,393.349609 267.040802,385.246246 
z"/>
<path fill="#024BAD" opacity="1.000000" stroke="none" 
	d="
M131.523972,297.066284 
	C145.446701,313.672791 162.579697,326.056183 181.317078,336.397400 
	C181.185730,336.782257 181.177002,337.225769 180.962158,337.377625 
	C167.684097,346.763519 154.584854,356.424408 140.989182,365.327026 
	C136.255753,368.426575 130.291458,369.646454 124.548363,371.839539 
	C110.485214,349.092804 113.263817,319.532654 131.523972,297.066284 
z"/>
<path fill="#054DAD" opacity="1.000000" stroke="none" 
	d="
M286.556641,251.142761 
	C283.194122,259.103760 279.423401,266.957428 275.475891,275.179352 
	C267.945587,266.164764 260.636230,257.414703 253.194839,248.363312 
	C264.091339,249.053146 275.119873,250.044296 286.556641,251.142761 
z"/>
<path fill="#064EAD" opacity="1.000000" stroke="none" 
	d="
M365.686890,291.553375 
	C358.037689,297.166626 348.985931,296.823120 339.984222,297.950958 
	C338.482910,289.162537 343.340790,283.314087 348.470551,277.180420 
	C354.336884,281.678986 359.949677,286.469971 365.686890,291.553375 
z"/>
<path fill="#FBFCFD" opacity="1.000000" stroke="none" 
	d="
M233.853546,385.534424 
	C231.470062,389.844055 229.216232,394.231781 226.676865,398.447540 
	C220.841644,408.135010 212.502167,413.434967 200.862244,413.148682 
	C188.077972,412.834167 180.123657,405.939484 177.268127,392.233521 
	C177.155228,375.311310 187.284943,362.963135 203.066910,360.661102 
	C204.835190,360.403137 206.878540,362.030853 208.794342,362.784119 
	C207.310577,363.979614 205.931427,366.040100 204.326477,366.234283 
	C191.068726,367.838348 182.469162,380.297485 183.143097,390.292725 
	C184.677994,402.499146 192.080078,408.501526 203.352188,407.312195 
	C216.305923,405.945465 222.088455,396.763489 226.322388,385.962677 
	C229.742340,376.238129 233.121124,366.498871 236.592056,356.792542 
	C241.569168,342.874207 246.613556,328.979980 251.900528,314.323303 
	C245.786407,312.618286 238.887466,310.470642 231.876190,308.792389 
	C221.709534,306.358795 211.410492,302.937897 200.969788,306.401276 
	C196.823944,307.776520 192.438843,310.570251 189.847885,313.993622 
	C185.925049,319.176849 185.645569,325.556091 189.587265,331.315338 
	C193.804657,337.477325 200.230408,337.486572 206.668091,336.754272 
	C209.282883,336.456818 211.779510,335.166077 214.395432,334.813934 
	C215.736984,334.633301 217.222748,335.523865 218.643341,335.930328 
	C217.966034,337.256104 217.611694,339.338654 216.560135,339.787384 
	C208.510849,343.222260 200.274155,344.538361 191.885193,340.741241 
	C184.398682,337.352600 181.369339,330.876373 181.401901,323.379150 
	C181.436966,315.298828 184.136093,307.901245 191.847504,303.587708 
	C201.077942,298.424408 210.912582,298.179047 220.929596,300.506470 
	C231.793793,303.030701 242.571716,305.947021 253.485214,308.222595 
	C256.043671,308.756073 259.215729,307.909241 261.730194,306.826141 
	C273.932831,301.569855 285.977753,297.007843 298.597656,305.869476 
	C299.897644,306.782318 302.309418,306.153900 304.205841,306.167023 
	C309.124512,306.201080 314.261261,305.285217 318.915070,306.400574 
	C327.498596,308.457672 329.672668,317.712250 323.441833,324.002502 
	C314.332581,333.198639 302.823425,333.991302 290.896149,332.652863 
	C285.657776,332.065063 284.264526,333.330780 285.384888,338.527924 
	C286.980927,345.932037 289.911377,347.892426 297.376404,347.035217 
	C300.281921,346.701569 303.591248,346.228912 306.105286,347.280762 
	C308.173004,348.145844 310.707550,351.299225 310.528748,353.203033 
	C310.337738,355.237183 307.340698,358.384064 305.333435,358.575104 
	C301.557098,358.934479 297.359161,358.129791 293.810242,356.662903 
	C290.492828,355.291687 287.925964,355.264740 284.927612,356.979034 
	C274.272675,363.070984 267.278809,371.499756 267.004700,384.797485 
	C264.608154,393.349609 270.384491,402.839478 279.656677,405.972748 
	C292.513702,410.317413 307.263306,405.435577 316.249847,393.265869 
	C319.868744,388.365143 322.330719,382.624817 325.627380,377.463440 
	C326.776459,375.664368 329.553253,372.881622 330.384155,373.251282 
	C334.076294,374.893707 331.718994,377.867523 330.563080,379.938141 
	C327.014465,386.294617 323.685760,392.902374 319.226593,398.593689 
	C311.382080,408.605865 300.638397,413.324707 287.813019,413.009583 
	C271.634247,412.612091 261.845032,403.347015 260.713074,386.357605 
	C260.696136,368.524170 270.112885,357.851135 284.518005,350.493225 
	C280.886993,344.447388 278.020599,338.748108 279.737000,331.774384 
	C280.020569,330.622253 278.358246,328.683319 277.176788,327.540588 
	C274.445129,324.898376 271.251740,322.719971 268.615570,319.995483 
	C263.153046,314.350006 259.477112,314.512817 256.215088,321.725464 
	C252.050400,330.934021 248.274216,340.356323 244.977402,349.909698 
	C240.920944,361.664368 237.531372,373.649109 233.853546,385.534424 
M306.481995,311.683563 
	C298.884613,314.028381 291.997559,317.276398 288.366272,325.804260 
	C297.363312,327.971588 305.649017,327.867554 313.621918,324.069397 
	C315.804840,323.029449 317.962646,321.464752 319.482697,319.609070 
	C322.191345,316.302185 321.228271,313.008850 317.099762,311.984161 
	C313.973694,311.208313 310.563293,311.578156 306.481995,311.683563 
M290.168091,307.866455 
	C283.046051,306.095337 276.248505,306.726013 269.854004,310.673187 
	C277.728577,312.031677 285.589020,314.932068 294.295959,310.428833 
	C292.684998,309.315857 291.799286,308.703949 290.168091,307.866455 
M281.996582,318.066864 
	C280.013275,318.066864 278.029938,318.066864 276.046631,318.066864 
	C275.986084,318.513611 275.925537,318.960358 275.864990,319.407104 
	C277.335236,320.417175 278.696014,321.728119 280.318939,322.318604 
	C281.217316,322.645447 282.990417,322.086945 283.549683,321.325562 
	C283.964233,320.761200 283.058289,319.226837 281.996582,318.066864 
z"/>
<path fill="#054DAE" opacity="1.000000" stroke="none" 
	d="
M225.833862,385.935242 
	C222.088455,396.763489 216.305923,405.945465 203.352188,407.312195 
	C192.080078,408.501526 184.677994,402.499146 183.194611,390.724121 
	C197.271912,388.870483 211.308624,387.389160 225.833862,385.935242 
z"/>
<path fill="#D9D9D9" opacity="1.000000" stroke="none" 
	d="
M234.320877,385.651855 
	C237.531372,373.649109 240.920944,361.664368 244.977402,349.909698 
	C248.274216,340.356323 252.050400,330.934021 256.215088,321.725464 
	C259.477112,314.512817 263.153046,314.350006 268.615570,319.995483 
	C271.251740,322.719971 274.445129,324.898376 277.176788,327.540588 
	C278.358246,328.683319 280.020569,330.622253 279.737000,331.774384 
	C278.020599,338.748108 280.886993,344.447388 284.518005,350.493225 
	C270.112885,357.851135 260.696136,368.524170 260.756805,385.944519 
	C252.052612,386.197388 243.420410,385.983337 234.320877,385.651855 
z"/>
<path fill="#DADADA" opacity="1.000000" stroke="none" 
	d="
M306.880707,311.560852 
	C310.563293,311.578156 313.973694,311.208313 317.099762,311.984161 
	C321.228271,313.008850 322.191345,316.302185 319.482697,319.609070 
	C317.962646,321.464752 315.804840,323.029449 313.621918,324.069397 
	C305.649017,327.867554 297.363312,327.971588 288.366272,325.804260 
	C291.997559,317.276398 298.884613,314.028381 306.880707,311.560852 
z"/>
<path fill="#DBDBDB" opacity="1.000000" stroke="none" 
	d="
M290.540833,307.979248 
	C291.799286,308.703949 292.684998,309.315857 294.295959,310.428833 
	C285.589020,314.932068 277.728577,312.031677 269.854004,310.673187 
	C276.248505,306.726013 283.046051,306.095337 290.540833,307.979248 
z"/>
<path fill="#DEDEDE" opacity="1.000000" stroke="none" 
	d="
M282.368591,318.095734 
	C283.058289,319.226837 283.964233,320.761200 283.549683,321.325562 
	C282.990417,322.086945 281.217316,322.645447 280.318939,322.318604 
	C278.696014,321.728119 277.335236,320.417175 275.864990,319.407104 
	C275.925537,318.960358 275.986084,318.513611 276.046631,318.066864 
	C278.029938,318.066864 280.013275,318.066864 282.368591,318.095734 
z"/>
</svg>